<?xml version="1.0" encoding="utf-8"?>
<!-- Generator: Adobe Illustrator 13.0.2, SVG Export Plug-In . SVG Version: 6.00 Build 14948)  -->
<!DOCTYPE svg PUBLIC "-//W3C//DTD SVG 1.1//EN" "http://www.w3.org/Graphics/SVG/1.1/DTD/svg11.dtd">
<svg version="1.1" xmlns="http://www.w3.org/2000/svg" xmlns:xlink="http://www.w3.org/1999/xlink" x="0px" y="0px" width="300px"
	 height="75px" viewBox="0 0 300 75" enable-background="new 0 0 300 75" xml:space="preserve">
<g id="Layer_1">
	<g>
		<path fill="#0E5A19" d="M229.154,28.857c-1.504,3.612-2.329,8.777-0.439,12.484c2.523,5.261,8.29,8.754,14.232,8.216
			c3.479-0.164,6.503-1.888,9.039-3.646c-3.701,4.023-4.689,10.58-2.434,15.625c2.309,5.566,8.329,8.32,14.233,8.173
			c4.712-0.265,8.959-2.865,11.381-7.009c1.987-3.745,2.591-9.167,0.435-13.045c-1.631-4.103-5.891-6.786-9.955-7.783
			c-4.988-0.99-9.863,0.533-13.445,3.563c2.393-2.973,3.943-6.281,3.99-10.183c0.09-3.813-1.926-6.825-3.631-9.754
			c1.957,1.583,4.127,2.558,6.383,3.269c4.947,1.163,9.688-0.532,13.363-3.04c-1.74,2.271-2.904,4.708-3.445,7.402
			c-1.127,6.077,2.279,11.416,7.293,14.614c3.636,1.998,9.059,2.376,12.916,0.56c4.169-1.688,7.518-6.1,8.176-10.354
			c0.654-4.514-0.493-8.834-3.521-12.097c-3.254-3.433-7.371-5.081-12.08-4.555c-3.123,0.379-5.975,1.752-8.47,3.337
			c3.091-3.759,4.399-8.927,3.027-13.768c-1.103-4.148-5.154-8.178-9.399-9.348c-4.113-1.519-9.217-0.643-12.673,1.777
			c-3.802,2.986-6.094,6.953-6.088,11.677c-0.091,3.856,1.794,7.045,3.632,9.97c-4.269-3.55-11.154-4.781-16.24-2.17
			C232.893,24.051,230.404,26.287,229.154,28.857z"/>
		<path fill="#0E5A19" d="M229.154,28.857c-1.504,3.612-2.329,8.777-0.439,12.484c2.523,5.261,8.29,8.754,14.232,8.216
			c3.479-0.164,6.503-1.888,9.039-3.646c-3.701,4.023-4.689,10.58-2.434,15.625c2.309,5.566,8.329,8.32,14.233,8.173
			c4.712-0.265,8.959-2.865,11.381-7.009c1.987-3.745,2.591-9.167,0.435-13.045c-1.631-4.103-5.891-6.786-9.955-7.783
			c-4.988-0.99-9.863,0.533-13.445,3.563c2.393-2.973,3.943-6.281,3.99-10.183c0.09-3.813-1.926-6.825-3.631-9.754
			c1.957,1.583,4.127,2.558,6.383,3.269c4.947,1.163,9.688-0.532,13.363-3.04c-1.74,2.271-2.904,4.708-3.445,7.402
			c-1.127,6.077,2.279,11.416,7.293,14.614c3.636,1.998,9.059,2.376,12.916,0.56c4.169-1.688,7.518-6.1,8.176-10.354
			c0.654-4.514-0.493-8.834-3.521-12.097c-3.254-3.433-7.371-5.081-12.08-4.555c-3.123,0.379-5.975,1.752-8.47,3.337
			c3.091-3.759,4.399-8.927,3.027-13.768c-1.103-4.148-5.154-8.178-9.399-9.348c-4.113-1.519-9.217-0.643-12.673,1.777
			c-3.802,2.986-6.094,6.953-6.088,11.677c-0.091,3.856,1.794,7.045,3.632,9.97c-4.269-3.55-11.154-4.781-16.24-2.17
			C232.893,24.051,230.404,26.287,229.154,28.857z"/>
		<rect x="184.915" y="65.605" fill="#0E5A19" width="1.356" height="8.345"/>
		<rect x="184.915" y="65.605" fill="#0E5A19" width="1.356" height="8.345"/>
		<path fill="#0E5A19" d="M189.921,65.605v1.049h0.033c0.259-0.396,0.612-0.745,0.937-0.904c0.403-0.302,1.066-0.396,1.683-0.381
			c0.614,0.017,1.18,0.126,1.39,0.221c0.421,0.225,1.162,0.637,1.34,1.876v6.484h-1.354v-5.8c0.015-1.033-0.762-1.575-1.698-1.575
			c-1.132,0-2.36,0.698-2.328,2.94v4.435h-1.356v-8.345H189.921z"/>
		<path fill="#0E5A19" d="M189.921,65.605v1.049h0.033c0.259-0.396,0.612-0.745,0.937-0.904c0.403-0.302,1.066-0.396,1.683-0.381
			c0.614,0.017,1.18,0.126,1.39,0.221c0.421,0.225,1.162,0.637,1.34,1.876v6.484h-1.354v-5.8c0.015-1.033-0.762-1.575-1.698-1.575
			c-1.132,0-2.36,0.698-2.328,2.94v4.435h-1.356v-8.345H189.921z"/>
		<path fill="#0E5A19" d="M204.123,71.073c-0.034,0.696-0.227,1.302-0.453,1.685c-0.661,1.096-1.956,1.604-3.197,1.557
			c-1.246-0.063-2.441-0.666-2.977-1.764c-0.338-0.683-0.614-1.717-0.58-2.828c0.031-1.097,0.355-2.271,1.212-3.227
			c0.679-0.762,1.632-1.098,2.554-1.127c0.922-0.018,1.811,0.255,2.393,0.746c0.66,0.412,0.951,1.335,1.05,2.304h-1.341
			c-0.146-0.873-0.34-1.287-0.905-1.558c-0.244-0.127-0.662-0.286-1.162-0.271c-0.521,0.034-1.101,0.239-1.666,0.875
			c-0.37,0.412-0.596,1.225-0.661,2.065c-0.065,0.844,0.031,1.702,0.305,2.239c0.521,1.004,1.358,1.319,2.104,1.289
			c0.76-0.05,1.422-0.463,1.616-0.906c0.192-0.351,0.354-0.764,0.403-1.08L204.123,71.073L204.123,71.073z"/>
		<path fill="#0E5A19" d="M207.334,74.162c0.764,0,1.383-0.607,1.383-1.36c0-0.752-0.619-1.36-1.383-1.36
			c-0.768,0-1.386,0.608-1.386,1.36C205.948,73.555,206.566,74.162,207.334,74.162z"/>
		<path fill="#0E5A19" d="M207.334,74.162c0.764,0,1.383-0.607,1.383-1.36c0-0.752-0.619-1.36-1.383-1.36
			c-0.768,0-1.386,0.608-1.386,1.36C205.948,73.555,206.566,74.162,207.334,74.162z"/>
	</g>
</g>
<g id="Layer_2">
	<path fill="#0E5A19" d="M189.034,62.31c5.032,0.679,9.867-0.526,13.807-3.008c6.918-4.479,9.265-11.738,9.535-19.362
		c0.676-2.746,3.513-5.43,6.368-5.973c1.364-0.483,3.265-0.119,4.45-0.386l-0.253-11.128l-4.189-0.17
		c-6.914,0.624-13.523,5.102-16.538,11.383c-2.565,3.706-1.361,8.875-3.034,12.916c-2.122,3.833-6.385,4.905-10.402,4.516
		C188.777,54.952,188.815,58.549,189.034,62.31z"/>
	<path fill="#0E5A19" d="M171.616,53.798L160.71,72.402l-0.126,0.773l13.271-0.008l26.845-45.094l2.766-5.083l-13.271-0.078
		l-0.568,0.437c-3.728,5.857-6.744,12.184-10.785,17.704c-2.975-5.921-5.2-12.148-8.128-18.068
		c-4.324-0.085-8.644-0.17-13.179,0.261C162.095,33.476,167.053,43.572,171.616,53.798z"/>
	<path fill="#0E5A19" d="M96.032,35.221c2.937-1.486,7.043-0.885,9.533,1.187c2.232,2.291,3.543,5.188,2.694,8.449
		c-0.673,3.005-3.599,5.645-6.635,6.232c-3.21,0.547-6.393-0.363-8.624-2.865c-1.967-2.423-2.4-5.713-1.375-8.676
		C92.444,37.741,94.189,36.01,96.032,35.221z M79.314,9.834l0.156,34.89c0.382,6.587,4.812,12.705,10.709,15.857
		c6.209,3.446,15.506,2.881,21.281-1.117c6.302-4.219,9.145-10.582,9.109-17.688c-0.643-6.543-3.97-12.629-10.135-16.206
		c-5.372-3.281-13.086-3.289-18.969-1.007c-0.755-4.486-0.151-9.8-0.244-14.292l-0.361-0.683L79.314,9.834z M50.699,37.866
		c2.306-2.934,5.955-3.699,9.492-2.834c2.166,0.49,4.391,2.524,5.251,4.57c1.399,3.066,0.737,6.97-1.706,9.35
		c-2.485,2.634-6.45,2.933-9.722,1.769c-2.701-1.131-4.541-3.976-5.056-6.671C48.492,41.57,49.484,39.678,50.699,37.866z
		 M37.364,39.974c-1.146,8.185,2.51,16.111,9.961,20.273c5.634,3.235,14.321,3.62,20.06,0.221
		c7.145-3.839,11.248-11.5,10.457-19.368c-0.649-7.101-5.971-14.022-12.874-16.478c-6.066-2.464-13.947-1.57-19.155,2.078
		C41.006,30.049,38.277,34.698,37.364,39.974z M2.778,49.914c6.445,0.662,12.502-1.495,16.37-6.759
		c4.566-5.826,1.345-14.268,5.069-20.43c4.254-10.315,15.194-17.619,26.7-17.652c1.147,0.204,3.566-0.335,2.753,1.813l0.124,11.471
		c-1.188,0.355-2.646-0.229-3.966,0.126c-4.799,0.305-8.959,3.003-11.739,6.97c-4.43,6.252-1.021,15.549-5.67,21.718
		C27.065,57.671,15.63,64.169,3.233,63.138c-0.669-0.763-0.155-2.012-0.474-2.862L2.778,49.914z"/>
	<g>
		<g>
			<path fill="#0E5A19" d="M142.872,59.232c-9.237,0-16.527-7.425-16.527-16.863s7.227-17.115,16.15-17.115
				c6.787,0,12.567,4.467,15.019,10.696l-27.901,11.766c2.074,5.538,7.227,9.188,13.259,9.188c7.604,0,11.061-4.217,12.882-8.494
				h2.451C155.754,55.395,150.476,59.232,142.872,59.232z M128.984,45.389l25.387-10.633c-2.387-4.342-6.85-7.3-11.876-7.3
				c-7.604,0-13.826,6.608-13.826,14.851C128.669,43.376,128.794,44.445,128.984,45.389z"/>
			<path fill="#0E5A19" d="M142.872,63.666v-2.329V63.666c-5.737,0.004-10.974-2.324-14.733-6.168l0,0
				c-3.77-3.831-6.082-9.218-6.079-15.129l0,0c0.022-11.81,9.062-21.534,20.436-21.549l0,0c8.658,0.011,15.938,5.683,18.985,13.456
				l0,0l1.615,4.108l-27.066,11.413c1.75,1.669,4.125,2.658,6.843,2.675l0,0c3.049-0.022,4.753-0.78,6.035-1.757l0,0
				c1.272-0.985,2.201-2.396,2.926-4.096l0,0l1.126-2.644h11.358l-2.087,5.947c-1.461,4.201-3.944,7.771-7.333,10.171l0,0
				c-3.372,2.404-7.507,3.572-11.973,3.572l0,0C142.906,63.666,142.889,63.666,142.872,63.666L142.872,63.666z M142.495,31.888
				c-4.017,0.01-7.587,2.772-8.955,6.809l0,0l13.373-5.602c-1.331-0.77-2.832-1.207-4.39-1.207l0,0
				C142.513,31.888,142.504,31.888,142.495,31.888L142.495,31.888z"/>
		</g>
	</g>
</g>
</svg>
